# xmcd
#
# Track frame offsets:
#	150
#	5536
#	32259
#	54603
#	60344
#	79560
#	100078
#	108214
#	130306
#	151148
#	173936
#	194633
#	214616
#	220926
#	239603
#
# Disc length: 3241 seconds
#
# Revision: 1
# Processed by: cddbd v1.5.2PL0 Copyright (c) Steve Scherf et al.
# Submitted via: audiograbber 1.83.01
#
DISCID=c10ca70f
DTITLE=K DANS - EASY FIT
DYEAR=2008
DGENRE=WORLD
TTITLE0=PRELUDE (MESI)
TTITLE1=MALATCHONG
TTITLE2=AMITYE TWO PITI
TTITLE3=INTERVIEW (RICKY)
TTITLE4=SUPERSTAR
TTITLE5=AFTER PARTY
TTITLE6=INTERVIEW (ALFRED)
TTITLE7=SA PA GADE KOMPA
TTITLE8=LANMOU TA DWE KOUPAB
TTITLE9=CHAMPET
TTITLE10=LANMOU AVEG
TTITLE11=MIZIK SE VIM
TTITLE12=INTERVIEW (KING D)
TTITLE13=SORRY SISTER
TTITLE14=SIDA
EXTD=
EXTT0=
EXTT1=
EXTT2=
EXTT3=
EXTT4=
EXTT5=
EXTT6=
EXTT7=
EXTT8=
EXTT9=
EXTT10=
EXTT11=
EXTT12=
EXTT13=
EXTT14=
PLAYORDER=
